# xmcd
#
# Track frame offsets:
#	182
#	7445
#	23385
#	40195
#	54915
#	80267
#	97422
#	123355
#	140782
#	162020
#	179885
#	201732
#
# Disc length: 2738 seconds
#
# Revision: 0
# Processed by: cddbd v1.5.1PL0 Copyright (c) Steve Scherf et al.
# Submitted via: audiograbber 1.83.01
#
DISCID=ac0ab00c
DTITLE=Blues Brothers, The - Groove Me (The Live Experience)
DYEAR=1979
DGENRE=Blues
TTITLE0=Intro
TTITLE1=Hey Bartender
TTITLE2=Almost
TTITLE3=Rubber Biscuit
TTITLE4=Shot Gun Blues
TTITLE5=Groove Me
TTITLE6=I Don't Know
TTITLE7=Soul Man
TTITLE8=B" Movie Box Car Blues
TTITLE9=Flip Flop Fly
TTITLE10=Jailhouse Rock
TTITLE11=Final
EXTD=YEAR: 1979 ID3G: 0\nLive at Wintherland Ballroom, San Francisco, 31-12-19
EXTD=79
EXTT0=
EXTT1=
EXTT2=
EXTT3=
EXTT4=
EXTT5=
EXTT6=
EXTT7=
EXTT8=
EXTT9=
EXTT10=
EXTT11=
PLAYORDER=
